<svg width="56" height="56" viewBox="0 0 56 56" xmlns="http://www.w3.org/2000/svg">
    <g fill="none" fill-rule="evenodd">
        <path fill="#FFF" d="M-112-2185h1170v5371H-112z"/>
        <g transform="translate(-12 -12)">
            <rect fill="#F2F2F2" width="182" height="182" rx="8"/>
            <g transform="translate(12 12)">
                <circle fill="#D4E0FE" fill-rule="nonzero" cx="28" cy="28" r="28"/>
                <path d="M34.27 16.078a3.278 3.278 0 0 0-3.28 3.162l-.365 10.795h7.291l-.365-10.795a3.278 3.278 0 0 0-3.28-3.162zM21.292 16.078a3.277 3.277 0 0 0-3.28 3.162l-.366 10.795h7.291l-.365-10.795a3.278 3.278 0 0 0-3.28-3.162z" fill="#5080FA"/>
                <path d="m36.877 17.985-7.948.506c-.619.039-1.24.039-1.858 0l-7.948-.506a5.246 5.246 0 0 0-5.53 4.468l-1.343 9.182h31.5l-1.343-9.182a5.246 5.246 0 0 0-5.53-4.468z" fill="#80A3FC"/>
                <path d="M38.135 26.255h-20.27c-3.101 0-5.615 2.506-5.615 5.598 0 3.091 2.514 5.597 5.615 5.597h20.27c3.101 0 5.615-2.506 5.615-5.597 0-3.092-2.514-5.598-5.615-5.598z" fill="#4270F8"/>
                <path d="M35 39.922c-3.544 0-6.417-2.864-6.417-6.397 0-3.533 2.873-6.397 6.417-6.397 3.543 0 6.416 2.864 6.416 6.397 0 3.533-2.873 6.397-6.416 6.397z" fill="#2C3ED0" fill-rule="nonzero"/>
                <path d="M34.999 37.16a3.64 3.64 0 0 1-3.646-3.635A3.64 3.64 0 0 1 35 29.89a3.64 3.64 0 0 1 3.646 3.635 3.64 3.64 0 0 1-3.646 3.635z" fill="#EFF4FF" fill-rule="nonzero"/>
                <path d="M20.708 39.922c-3.543 0-6.416-2.864-6.416-6.397 0-3.533 2.873-6.397 6.416-6.397 3.544 0 6.417 2.864 6.417 6.397 0 3.533-2.873 6.397-6.417 6.397z" fill="#2C3ED0" fill-rule="nonzero"/>
                <path d="M20.708 37.16a3.64 3.64 0 0 1-3.646-3.635 3.64 3.64 0 0 1 3.646-3.635 3.64 3.64 0 0 1 3.646 3.635 3.64 3.64 0 0 1-3.646 3.635z" fill="#EFF4FF" fill-rule="nonzero"/>
            </g>
        </g>
    </g>
</svg>
