<svg xmlns="http://www.w3.org/2000/svg" xmlns:xlink="http://www.w3.org/1999/xlink" width="72" height="72" viewBox="0 0 72 72">
    <defs>
        <path id="a" d="M0 0h72v72H0z"/>
        <path id="c" d="M0 0h72v72H0z"/>
    </defs>
    <g fill="none" fill-rule="evenodd">
        <mask id="b" fill="#fff">
            <use xlink:href="#a"/>
        </mask>
        <g mask="url(#b)">
            <mask id="d" fill="#fff">
                <use xlink:href="#c"/>
            </mask>
            <use fill="#F2F2F2" xlink:href="#c"/>
            <path fill="#E1E1E1" d="M70.677 67.032c-.951-2.844-2.674-5.712-5.215-7.381-4.89-3.236-10.587-4.962-16.095-6.81-1.329-.465-2.68-.97-3.893-1.69-1.085-.643-1.492-1.96-1.743-3.117-.112-.612-.18-1.24-.215-1.857 3.994-5.448 6.644-14.34 6.644-21.63C50.16 13.172 43.712 10 35.76 10c-7.954 0-14.4 3.166-14.4 14.543 0 7.551 2.84 16.814 7.075 22.195-.039.424-.09.85-.166 1.272-.252 1.157-.659 2.45-1.742 3.092-1.216.72-2.566 1.177-3.895 1.64-5.509 1.849-11.206 3.478-16.094 6.714-2.542 1.67-4.264 4.732-5.214 7.576C.346 69.982-.054 73.638.006 76.6h71.988c.06-2.962-.34-6.617-1.317-9.568z" mask="url(#d)"/>
        </g>
    </g>
</svg>
