<svg width="12" height="12" viewBox="0 0 12 12" xmlns="http://www.w3.org/2000/svg">
    <g fill="none" fill-rule="evenodd">
        <rect fill="#5080FA" width="12" height="12" rx="3"/>
        <path d="M8.553 2.402C8.255 2.134 7.869 2 7.396 2c-.63 0-1.17.187-1.62.56a2.03 2.03 0 0 0-.756 1.379c-.015.171-.012.566.215 1.07.115.226.304.49.57.792.38.435.628.756.743.964.115.207.172.437.172.69 0 .401-.141.749-.424 1.044-.283.295-.616.443-1 .443-.346 0-.633-.112-.858-.335a1.144 1.144 0 0 1-.338-.849c0-.216.064-.435.193-.656.128-.22.287-.392.479-.516l-.002-.002a.553.553 0 0 0 .27-.477c0-.304-.24-.55-.536-.55a.52.52 0 0 0-.252.065V5.62c-.091.055-.183.121-.278.198C3.324 6.346 3 7.004 3 7.793c0 .645.209 1.174.626 1.587.417.413.951.62 1.604.62.842 0 1.524-.307 2.044-.92a2.33 2.33 0 0 0 .571-1.56c0-.61-.215-1.189-.646-1.736l-.223-.276-.144-.188-.548-.701c-.302-.38-.175-.785-.175-.785.05-.191.174-.365.374-.52.248-.194.523-.29.825-.29a.8.8 0 0 1 .464.12c.116.081.174.188.174.32 0 .247-.15.403-.45.471l.001.001a.516.516 0 0 0-.406.51c0 .287.226.52.505.52.04 0 .079-.005.116-.014.24-.043.433-.11.578-.205.473-.302.71-.737.71-1.304 0-.426-.149-.773-.447-1.041" fill="#FFF"/>
    </g>
</svg>
