<svg width="80" height="80" viewBox="0 0 80 80" xmlns="http://www.w3.org/2000/svg">
    <defs>
        <linearGradient x1="0%" y1="50%" x2="100%" y2="50%" id="70ps0euuoa">
            <stop stop-color="#00C7AE" offset="0%"/>
            <stop stop-color="#4CC8E5" offset="100%"/>
        </linearGradient>
    </defs>
    <g fill="none" fill-rule="evenodd">
        <circle fill-opacity=".5" fill="url(#70ps0euuoa)" cx="40" cy="40" r="40"/>
        <path d="M16 64h48V16H16z"/>
        <path d="M22.106 51.817c0 1.53.384 2.686 1.152 3.467.768.78 1.93 1.17 3.485 1.17H52.63c1.617 0 2.831-.4 3.642-1.2.81-.8 1.215-1.995 1.215-3.584V27.786c0-1.598-.405-2.797-1.215-3.598-.811-.8-2.025-1.201-3.642-1.201H33.787c-1.618 0-2.832.4-3.643 1.201-.81.8-1.215 2-1.215 3.598v7.545h-3.72c-.973 0-1.734.254-2.281.76-.548.508-.822 1.217-.822 2.128v13.598zm2.421-.002V38.68c0-.288.083-.515.25-.68.165-.164.398-.247.697-.247h3.455v14.062c0 .651-.212 1.183-.635 1.597-.423.414-.94.621-1.551.621-.63 0-1.158-.212-1.581-.636-.423-.423-.635-.95-.635-1.582zm6.271 2.218c.368-.681.553-1.469.553-2.363V27.92c0-.827.214-1.453.643-1.877.429-.424 1.042-.636 1.84-.636h18.75c.798 0 1.41.212 1.84.636.429.424.643 1.05.643 1.877v23.614c0 .827-.214 1.45-.643 1.87-.43.418-1.042.628-1.84.628H30.798zm4.654-21.796h15.543a.895.895 0 0 0 .667-.28.929.929 0 0 0 .272-.672.863.863 0 0 0-.272-.643.92.92 0 0 0-.667-.265H35.452c-.272 0-.5.089-.68.265a.863.863 0 0 0-.273.643c0 .262.09.486.272.673.182.186.409.28.681.28zm0 5.516h15.543a.92.92 0 0 0 .667-.265.88.88 0 0 0 .272-.657.904.904 0 0 0-.272-.666.908.908 0 0 0-.667-.272H35.452c-.272 0-.5.09-.68.272a.905.905 0 0 0-.273.666c0 .261.09.48.272.657a.937.937 0 0 0 .681.265zm10.255 11.164h4.05c.59 0 1.052-.168 1.388-.505.337-.336.505-.798.505-1.386v-3.697c0-.598-.168-1.065-.505-1.402-.336-.336-.799-.504-1.387-.504h-4.051c-.598 0-1.065.168-1.402.504-.337.337-.505.804-.505 1.402v3.697c0 .588.168 1.05.505 1.386.337.337.804.505 1.402.505zm-10.368-5.634h5.83a.912.912 0 0 0 .674-.265.875.875 0 0 0 .265-.643.936.936 0 0 0-.265-.68.9.9 0 0 0-.673-.272h-5.831a.9.9 0 0 0-.674.272.935.935 0 0 0-.265.68c0 .252.088.466.265.643a.914.914 0 0 0 .674.265zm0 5.634h5.83a.912.912 0 0 0 .674-.265.876.876 0 0 0 .265-.643.936.936 0 0 0-.265-.68.9.9 0 0 0-.673-.273h-5.831a.9.9 0 0 0-.674.273.935.935 0 0 0-.265.68c0 .252.088.467.265.643a.913.913 0 0 0 .674.265z" fill="#FFF" fill-rule="nonzero"/>
    </g>
</svg>
